<svg width="40" height="40" viewBox="0 0 40 40" fill="none" xmlns="http://www.w3.org/2000/svg">
<rect width="40" height="40" rx="2" fill="#F5F5F5"/>
<path d="M14.9502 26.5455H20.5432C23.4836 26.5455 25.0496 25.0114 25.0496 22.9276C25.0496 20.9908 23.6626 19.8211 22.1732 19.7508V19.6229C23.5347 19.3161 24.5383 18.3509 24.5383 16.8104C24.5383 14.8481 23.0809 13.4546 20.1917 13.4546H14.9502V26.5455ZM17.718 24.2827V20.8054H20.0383C21.3678 20.8054 22.1924 21.5725 22.1924 22.6527C22.1924 23.6371 21.5212 24.2827 19.9743 24.2827H17.718ZM17.718 18.9326V15.6918H19.8209C21.0482 15.6918 21.7449 16.3246 21.7449 17.2706C21.7449 18.3062 20.9012 18.9326 19.7698 18.9326H17.718Z" fill="black"/>
</svg>
